<?xml version="1.0" encoding="iso-8859-1"?>
<!-- Generator: Adobe Illustrator 19.0.0, SVG Export Plug-In . SVG Version: 6.00 Build 0)  -->
<svg version="1.1" id="Capa_1" xmlns="http://www.w3.org/2000/svg" xmlns:xlink="http://www.w3.org/1999/xlink" x="0px" y="0px"
	 viewBox="0 0 512.001 512.001" style="enable-background:new 0 0 512.001 512.001;" xml:space="preserve">
<g>
	<g>
		<path d="M442.935,0H151.916c-30.844,0-55.938,25.094-55.938,55.938v352.365H12.152v48.633c0,30.362,24.702,55.065,55.064,55.065
			h291.892c40.898,0,55.067-35.145,56.846-53.728l0.068-0.713V103.697h83.825V56.913h0.001C499.848,25.531,474.316,0,442.935,0z
			 M67.217,481.999V482c-13.82,0-25.064-11.244-25.064-25.065v-18.633h260.175v20.676c0,0-0.952,13.691,6.777,22.951
			c0.017,0.02,0.022,0.047,0.034,0.07H67.217z M386.024,56.913v398.978h-0.002c-0.269,1.72-1.405,7.799-4.714,13.605
			c-4.859,8.53-11.934,11.856-22.2,12.504c-22.483,1.42-26.581-23.472-26.781-24.73v-48.967H125.979V55.938
			c0-14.302,11.636-25.938,25.938-25.938h240.881C392.438,30.669,385.876,42.357,386.024,56.913z M469.848,73.697h-53.825V56.913
			c0-1.855,0.189-3.667,0.548-5.417C419.085,39.244,429.951,30,442.935,30c14.84,0,26.913,12.073,26.913,26.913V73.697z"/>
	</g>
</g>
<g>
	<g>
		<rect x="173.64" y="215.26" width="164.51" height="30"/>
	</g>
</g>
<g>
	<g>
		<rect x="173.64" y="152.57" width="164.51" height="30"/>
	</g>
</g>
<g>
	<g>
		<rect x="173.64" y="278.13" width="164.51" height="30"/>
	</g>
</g>
<g>
</g>
<g>
</g>
<g>
</g>
<g>
</g>
<g>
</g>
<g>
</g>
<g>
</g>
<g>
</g>
<g>
</g>
<g>
</g>
<g>
</g>
<g>
</g>
<g>
</g>
<g>
</g>
<g>
</g>
</svg>
